PLOT

A horror-comedy of errors, Die-ner (get it?) explores the existential dilemma of a sociopath
killer who runs into the unique problem of his victims rising from the dead...
 
http://www.imdb.com/title/tt1260570/

Encoded By .......: BigPerm1828
Runtime ..........: 1h 15mn
File Size ........: 528 MiB
Resolution .......: 704x396
IMDb URL .........: http://www.imdb.com/title/tt1260570/
Language .........: English
Video
ID : 0
Format : MPEG-4 Visual
Format profile : Advanced Simple@L5
Format settings, BVOP : Yes
Format settings, QPel : No
Format settings, GMC : No warppoints
Format settings, Matrix : Default (H.263)
Codec ID : XVID
Codec ID/Hint : XviD
Duration : 1h 15mn
Bit rate : 777 Kbps
Width : 704 pixels
Height : 396 pixels
Display aspect ratio : 16:9
Frame rate : 29.970 fps
Color space : YUV
Chroma subsampling : 4:2:0
Bit depth : 8 bits
Scan type : Progressive
Compression mode : Lossy
Bits/(Pixel*Frame) : 0.093
Stream size : 420 MiB (80%)
Writing library : XviD 1.2.1 (UTC 2008-12-04)

Audio
ID : 1
Format : AC-3
Format/Info : Audio Coding 3
Mode extension : CM (complete main)
Codec ID : 2000
Duration : 1h 15mn
Bit rate mode : Constant
Bit rate : 192 Kbps
Channel(s) : 2 channels
Channel positions : Front: L R
Sampling rate : 48.0 KHz
Bit depth : 16 bits
Compression mode : Lossy
Video delay : 33ms
Stream size : 104 MiB (20%)
Alignment : Split accross interleaves
Interleave, duration : 500 ms (14.98 video frames)
Interleave, preload duration : 500 ms
 
http://leetleech.org/images/64407176302516373810.png
 
http://leetleech.org/images/09238046011071353779.png
 
http://leetleech.org/images/51756157946178364719.png
 
http://leetleech.org/images/21652569119966046208.png
 
http://leetleech.org/images/77421446955341996301.png